<svg
	aria-hidden="true"
	focusable="false"
	data-prefix="fad"
	data-icon="dumbbell"
	role="img"
	xmlns="http://www.w3.org/2000/svg"
	viewBox="0 0 640 512"
	>
	<g>
	  <path
		d="M32 288H16a16 16 0 0 1-16-16v-32a16 16 0 0 1 16-16h16zm352-64H256v64h128zm240 0h-16v64h16a16 16 0 0 0 16-16v-32a16 16 0 0 0-16-16z"
		fill="#039be5"
	  ></path>
	  <path
		d="M232 32h-48a23.94 23.94 0 0 0-24 24v400a23.94 23.94 0 0 0 24 24h48a23.94 23.94 0 0 0 24-24V56a23.94 23.94 0 0 0-24-24zm224 0h-48a23.94 23.94 0 0 0-24 24v400a23.94 23.94 0 0 0 24 24h48a23.94 23.94 0 0 0 24-24V56a23.94 23.94 0 0 0-24-24zm128 64h-48a23.94 23.94 0 0 0-24 24v272a23.94 23.94 0 0 0 24 24h48a23.94 23.94 0 0 0 24-24V120a23.94 23.94 0 0 0-24-24zm-480 0H56a23.94 23.94 0 0 0-24 24v272a23.94 23.94 0 0 0 24 24h48a23.94 23.94 0 0 0 24-24V120a23.94 23.94 0 0 0-24-24z"
		fill="#01579b"
	  ></path>
	</g>
</svg>